<?xml version="1.0" encoding="UTF-8"?>
<svg width="164px" height="34px" viewBox="0 0 164 34" version="1.1" xmlns="http://www.w3.org/2000/svg" xmlns:xlink="http://www.w3.org/1999/xlink">
    <title>anzPlusLogoBlueOnWhite</title>
    <g id="SYMBOLS" stroke="none" stroke-width="1" fill="none" fill-rule="evenodd">
        <g id="Components-/-Navigation-/-Desktop" transform="translate(-155.000000, -18.000000)" fill="#0572E6" fill-rule="nonzero">
            <g id="Group" transform="translate(155.000000, 18.000000)">
                <g id="anzPlusLogoBlueOnWhite" transform="translate(0.000000, 0.776650)">
                    <path d="M151.681198,27.1395939 C151.799421,29.3539086 153.723786,30.7950254 156.722517,30.7950254 C159.281147,30.7950254 161.183939,29.6447208 161.183939,27.848934 C161.183939,25.5491878 159.098203,25.2601015 156.454142,24.9037056 C152.992873,24.4523858 149.993279,23.7965482 149.993279,20.4638579 C149.993279,17.5937056 152.648558,15.702132 156.314345,15.7237056 C159.926629,15.7444162 162.57069,17.3900508 162.850284,20.6580203 L160.829269,20.6580203 C160.570385,18.6792893 158.808253,17.4219797 156.314345,17.4219797 C153.702213,17.4219797 151.960792,18.561066 151.960792,20.3137056 C151.960792,22.4417259 154.046528,22.7109645 156.540436,23.0440609 C160.130284,23.5169543 163.151451,24.2047208 163.151451,27.7203553 C163.151451,30.676802 160.281299,32.4932995 156.722517,32.4932995 C152.573482,32.4932995 149.76805,30.6008629 149.660182,27.1430457 L151.681198,27.1395939 Z" id="Path"></path>
                    <path d="M145.309218,15.8678173 L147.287086,15.8678173 L147.287086,32.3 L145.561198,32.3 L145.291959,29.2684772 C144.342721,31.0746193 142.551248,32.4932995 139.713025,32.4932995 C136.100741,32.4932995 133.36003,30.3109137 133.36003,25.0719797 L133.36003,15.8678173 L135.337035,15.8678173 L135.337035,24.9572081 C135.337035,28.698934 137.10003,30.676802 140.034903,30.676802 C143.291655,30.676802 145.31267,28.1069543 145.31267,24.0114213 L145.309218,15.8678173 Z" id="Path"></path>
                    <path d="M124.535563,13.0528934 C123.914405,11.9988511 123.002331,11.1464038 121.908761,10.5978173 C120.786934,10.0187817 119.456274,9.72538071 117.961655,9.72538071 L109.777492,9.72538071 L109.777492,20.214467 L111.874446,20.214467 L111.874446,11.6454315 L117.828761,11.6454315 C119.520132,11.6454315 120.882721,12.116599 121.877695,13.0468528 C122.87267,13.9771066 123.374903,15.2102538 123.374903,16.7195431 C123.374903,18.2288325 122.865766,19.4490355 121.861299,20.3767005 C120.856832,21.3043655 119.486477,21.7789848 117.795106,21.7789848 L109.779218,21.7789848 L109.779218,32.3 L111.876172,32.3 L111.876172,23.7145685 L117.96338,23.7145685 C119.435563,23.7145685 120.758457,23.4203046 121.893228,22.842132 C122.997162,22.2935865 123.916328,21.4338187 124.537289,20.368934 C125.151705,19.3101015 125.463228,18.0829949 125.463228,16.7195431 C125.461502,15.3336548 125.154294,14.1005076 124.535563,13.0528934 Z" id="Path"></path>
                    <path d="M66.2376444,26.1144162 L58.2122637,26.1144162 L61.5052586,21.7781218 L52.5893195,21.7781218 L49.4119591,25.9539086 C48.223685,27.6133503 48.1089134,29.2883249 48.1089134,30.4507107 L48.1089134,31.1074112 C48.1089134,31.866802 48.5800809,32.2801523 49.2773398,32.2801523 L66.2376444,32.2801523 C66.9219591,32.2801523 67.3827713,31.9030457 67.3827713,31.1307107 L67.3827713,27.2681726 C67.3827713,26.4915228 66.9219591,26.1144162 66.2376444,26.1144162 M20.5507916,10.7945685 C20.4230758,10.0679695 19.9311977,9.70984772 19.2908931,9.70984772 L17.0222129,9.70984772 C14.7336298,9.71246885 12.6102585,10.9022102 11.4130758,12.8526904 C11.4130758,12.8526904 9.24881187,16.3139594 6.82307583,20.2092893 L22.2205885,20.2092893 L20.5507916,10.7945685 L20.5507916,10.7945685 Z M45.9153093,10.8592893 C45.9153093,10.0869543 45.4544972,9.70984772 44.7658677,9.70984772 L40.1482535,9.70984772 C39.4648017,9.70984772 39.0031266,10.0869543 39.0031266,10.8592893 L39.0031266,19.6104061 L34.6314515,11.7429442 C33.7564261,10.293198 32.2842433,9.74177665 30.5652586,9.70984772 L27.1488626,9.70984772 C26.4705885,9.70984772 26.0080505,10.0869543 26.0080505,10.8592893 L26.0080505,20.214467 L31.7440403,20.214467 L32.6259692,21.7781218 L26.0080505,21.7781218 L26.0080505,31.1307107 C26.0080505,31.9030457 26.4705885,32.2870558 27.1488626,32.2870558 L31.7768322,32.2870558 C32.4671875,32.2870558 32.9202332,31.9030457 32.9202332,31.1307107 L32.9202332,22.3286802 L37.3350555,30.2565482 C38.1979997,31.6985279 39.6788119,32.2499492 41.3857154,32.2870558 L44.7658677,32.2870558 C45.456223,32.2870558 45.9153093,31.9030457 45.9153093,31.1307107 L45.9153093,21.7781218 L40.2198779,21.7781218 L39.3405378,20.214467 L45.9153093,20.214467 L45.9153093,10.8592893 Z M22.4950048,21.7781218 L14.8898779,21.7781218 C15.0840403,22.842132 16.4871875,30.7527411 16.5700301,31.2109645 C16.6994718,31.9237563 17.1430251,32.2861929 17.793685,32.2861929 L23.0257154,32.2861929 C23.5046494,32.2861929 23.7462738,32.1360406 23.974954,31.8624873 C24.1285581,31.6717766 24.1924159,31.3826904 24.1207916,30.9589848 L22.4984565,21.7781218 L22.4950048,21.7781218 Z M0.167187509,30.8709645 C-0.03991909,31.2256345 -0.03991909,31.5975635 0.0869337019,31.8391878 C0.232771265,32.1213706 0.55723827,32.2870558 0.9075936,32.2870558 L6.34414182,32.2870558 C7.01344694,32.2838678 7.63356321,31.9349708 7.98373573,31.3645685 L13.9803347,21.7781218 L5.84277127,21.7781218 C3.04769512,26.2542132 0.23794893,30.7682741 0.167187509,30.8709645 M49.4300809,15.8678173 L57.0757662,15.8678173 L53.7784565,20.2092893 L62.6918068,20.2092893 L65.9433804,15.9316751 C66.9469845,14.6096447 67.1799794,13.4291371 67.1799794,12.378934 L67.1799794,10.8894924 C67.1799794,10.1266497 66.7183043,9.70984772 66.0150048,9.70984772 L49.4300809,9.70984772 C48.7457662,9.70984772 48.2875428,10.0869543 48.2875428,10.8592893 L48.2875428,14.7235533 C48.2875428,15.4932995 48.7457662,15.8695431 49.4300809,15.8695431" id="Shape"></path>
                    <path d="M87.4048017,9.70984772 C88.9667307,9.70984772 90.7435327,11.0646701 90.7435327,12.9372589 C90.7435327,13.9917766 90.4069845,14.8063959 89.9125175,15.5502538 C89.6196959,15.9846653 89.3980129,16.4629878 89.255817,16.9672081 C89.1479489,17.4133503 88.9106393,18.4937563 90.2335327,18.5118782 C91.0964768,18.5334518 93.2072383,17.7852792 94.9158677,15.7254315 C96.2790406,14.0077351 97.0178614,11.8776916 97.0111422,9.68482234 C97.0111422,4.33456853 92.716223,0 87.4065276,0 C82.0968322,0 77.7932788,4.33715736 77.7932788,9.68482234 C77.7862212,11.8777488 78.5250802,14.0079026 79.8885581,15.7254315 C81.5997763,17.7852792 83.7122637,18.5334518 84.5708931,18.5118782 C85.8920606,18.4937563 85.6521621,17.4133503 85.5503347,16.9672081 C85.4086098,16.4627415 85.185638,15.9847365 84.8901824,15.5519797 C84.3974413,14.8081218 84.0600301,13.9935025 84.0600301,12.9389848 C84.0600301,11.0663959 85.8376951,9.7115736 87.4065276,9.7115736" id="Path"></path>
                    <path d="M104.394446,19.4982234 C104.000944,19.1720305 103.309726,18.6965482 101.891908,18.4782234 C99.9252586,18.1839594 98.1691672,18.6447716 97.1120606,19.0650254 C95.7218576,19.6147208 94.0054616,20.8651269 92.8275428,22.4935025 C91.5797256,24.2150761 90.9342433,26.8082234 91.5529743,29.5204569 C91.6824493,30.1245128 91.9005446,30.7061003 92.2001824,31.2463452 C92.5695225,31.9720812 93.5437865,32.9860406 94.3963753,33.1689848 C95.0703347,33.3079188 95.5967307,32.9204569 95.8556139,32.6279188 C97.5728728,30.6379695 104.084649,22.9292893 104.790538,21.9446701 C105.480893,20.9660914 105.031299,20.0263452 104.394446,19.4973604" id="Path"></path>
                    <path d="M77.6923652,19.0650254 C76.6352586,18.6447716 74.8808931,18.1839594 72.9133804,18.4782234 C71.4955631,18.6965482 70.7991672,19.1685787 70.4108423,19.4982234 C69.7739895,20.0272081 69.3174921,20.9652284 70.014751,21.945533 C70.7120098,22.9258376 77.2272383,30.6379695 78.9453601,32.6287817 C79.2042433,32.9213198 79.7306393,33.3096447 80.4054616,33.1698477 C81.2632281,32.9869036 82.2340403,31.9729442 82.6016545,31.2463452 C82.9024851,30.7061122 83.1222951,30.1246041 83.2540403,29.5204569 C83.8710454,26.8125381 83.2160708,24.2142132 81.9794718,22.4935025 C80.7989642,20.8651269 79.0817053,19.6147208 77.6923652,19.0650254" id="Path"></path>
                    <polygon id="Path" points="127.818203 9.72538071 129.796071 9.72538071 129.796071 32.3 127.818203 32.3"></polygon>
                </g>
            </g>
        </g>
    </g>
</svg>